<?xml version="1.0" standalone="no"?>
<!DOCTYPE svg PUBLIC "-//W3C//DTD SVG 20010904//EN"
 "http://www.w3.org/TR/2001/REC-SVG-20010904/DTD/svg10.dtd">
<svg version="1.0" xmlns="http://www.w3.org/2000/svg"
 width="700.000000pt" height="700.000000pt" viewBox="0 0 700.000000 700.000000"
 preserveAspectRatio="xMidYMid meet">
<metadata>
Created by potrace 1.11, written by Peter Selinger 2001-2013
</metadata>
<g transform="translate(0.000000,700.000000) scale(0.100000,-0.100000)"
fill="#000000" stroke="none">
<path d="M3672 4872 c-442 -2 -544 -5 -548 -16 -4 -11 54 -131 136 -281 15
-27 58 -108 95 -180 37 -71 80 -152 95 -180 15 -27 62 -117 105 -200 82 -158
112 -215 217 -410 71 -129 94 -174 336 -635 30 -58 74 -141 97 -185 23 -44 61
-116 84 -160 24 -44 49 -86 56 -94 12 -12 93 -14 484 -15 323 0 474 3 482 11
6 6 15 42 19 80 5 39 13 81 18 94 6 13 18 50 28 82 33 104 151 213 278 258 67
23 116 30 216 30 91 1 128 -5 194 -33 183 -78 310 -240 330 -423 9 -83 14 -95
39 -96 12 -1 110 -2 217 -3 195 -1 258 4 269 22 3 6 5 182 5 392 -1 281 -5
387 -14 404 -14 27 -325 182 -435 216 -38 13 -79 30 -89 39 -40 34 -78 103
-243 441 -39 80 -80 153 -90 162 -24 22 -51 26 -250 33 -89 4 -170 8 -180 10
-10 2 -27 4 -38 4 -47 3 -49 9 -51 196 l-1 176 -32 39 c-67 84 -178 192 -211
207 -38 17 -440 21 -1618 15z m2273 -812 c20 -16 245 -472 245 -496 0 -8 -3
-14 -7 -14 -5 0 -149 -1 -321 -2 -228 -2 -315 1 -320 9 -4 7 -7 121 -7 255 0
240 0 242 22 253 14 7 88 11 196 11 139 -1 178 -4 192 -16z"/>
<path d="M14 4847 c-13 -7 -14 -22 -10 -80 22 -271 101 -517 211 -652 98 -121
161 -162 357 -230 l47 -16 31 -97 c60 -179 117 -279 229 -395 100 -105 190
-165 313 -209 l63 -23 849 -3 c523 -2 853 1 859 7 6 6 -6 35 -30 78 -22 37
-68 122 -102 188 -35 66 -72 128 -84 138 -20 17 -57 18 -716 16 l-696 -2 -46
22 c-25 12 -64 38 -86 59 -54 48 -146 183 -133 196 5 5 309 8 760 8 l752 -1
-6 22 c-3 12 -40 88 -81 169 -57 110 -81 147 -98 151 -12 2 -374 5 -803 5
-874 1 -805 -5 -918 76 -98 71 -124 99 -154 167 -37 81 -43 106 -28 117 15 12
2024 13 2054 1 17 -6 57 -79 166 -301 79 -161 289 -585 466 -943 177 -357 342
-692 367 -743 29 -61 52 -96 66 -101 17 -7 381 -8 420 -2 14 2 7 32 -17 69
-13 21 -58 107 -100 191 -42 84 -94 185 -115 225 -21 39 -61 114 -88 166 -28
52 -69 129 -90 170 -22 41 -73 138 -113 215 -40 77 -85 163 -100 190 -15 28
-51 95 -80 150 -29 55 -69 132 -90 170 -21 39 -61 115 -90 170 -29 55 -83 156
-120 225 -37 69 -99 189 -139 267 -40 78 -80 148 -90 157 -15 14 -171 16
-1394 18 -776 2 -1384 0 -1393 -5z"/>
<path d="M5795 2950 c-200 -28 -360 -239 -339 -447 26 -252 275 -427 515 -363
136 37 256 155 295 290 13 45 13 169 0 217 -55 206 -252 333 -471 303z m161
-255 c63 -26 106 -120 89 -194 -14 -67 -129 -148 -195 -138 -110 18 -187 133
-154 231 35 103 148 147 260 101z"/>
</g>
</svg>
