<?xml version="1.0" encoding="utf-8"?>
<!-- Generator: Adobe Illustrator 21.0.0, SVG Export Plug-In . SVG Version: 6.00 Build 0)  -->
<svg version="1.1" id="Layer_1" xmlns="http://www.w3.org/2000/svg" xmlns:xlink="http://www.w3.org/1999/xlink" x="0px" y="0px"
	 viewBox="0 0 2839.8 345.2" style="enable-background:new 0 0 2839.8 345.2;" xml:space="preserve">
<style type="text/css">
	.st0{fill:#2E4953;}
	.st1{fill:#65C07D;}
	.st2{fill:#3E6A63;}
	.st3{fill:#509071;}
</style>
<g>
	<g>
		<path class="st0" d="M526.8,0.2c42.5,0,85,0.2,127.4-0.2c7.2-0.1,12.8,2.5,16.9,7.2c6.7,7.6,14.5,14.1,20.8,22.1
			c2,2.5,2.9,4.9,2.8,8.1c-0.2,11.2-0.2,22.3-0.1,33.5c0,7.3,1.8,8.9,9.1,9.4c16.3,1,32.6,2.1,48.9,2.2c4.4,0,7.1,1.7,9.4,5.7
			c7.9,13.6,14.5,27.9,20.7,42.3c3.9,9.1,9.3,17.2,14.3,25.6c3,4.9,7.2,8.2,13.7,9.6c13.3,3,25.1,10.2,37.3,16
			c5.2,2.5,10.5,5,15.6,7.7c4.1,2.2,5.9,5.4,5.7,10.5c-0.7,28.8-1,57.6,0.2,86.4c0.3,7.9-1.2,9.7-9.1,9.7c-16.7,0-33.3,0-50,0
			c-5.8,0-7.1-1.1-7.1-6.9c0-13.6-4.7-25.5-12.9-36.3c-9.5-12.5-21.6-20.9-36.6-25.1c-9.3-2.6-18.9-1.8-28.3-1
			c-19.4,1.8-34.9,10.9-46.6,26.4c-2.8,3.7-3.6,8.2-5,12.4c-2.8,7.8-5.3,15.8-5.2,24.2c0.1,4.6-1.8,6.3-6.7,6.3
			c-20-0.2-40,0.3-60-0.1c-17.3-0.4-34.6,0.2-51.9,0.1c-4.3,0-5.8-2.7-7.4-5.6c-9.4-17.6-18.6-35.3-27.9-53
			c-10.6-20.1-21-40.3-31.7-60.4c-7.5-14.2-15.4-28.3-23-42.5c-7.6-14.3-14.9-28.8-22.5-43.2c-6.1-11.7-12.4-23.4-18.6-35.1
			c-8.2-15.6-16.3-31.2-24.6-46.7c-4.9-9.2-5-9.1,5.8-9.1c42.1,0,84.3,0,126.4,0C526.8,0.5,526.8,0.3,526.8,0.2z M694.5,136.5
			c0.5,5.9,0.6,15-0.1,24.2c-0.2,2.8,0.3,6.1,4.7,6c12.5-0.1,25-0.2,37.4,0c12.6,0.2,25.3-1.6,37.9,0.1c2.8,0.4,3.4-1,2.8-3.6
			c-0.9-4-3.8-7-5.4-10.6c-7.1-15.7-14.4-31.3-22.4-46.6c-2.2-4.2-5.2-6-9.9-5.9c-12.8,0.2-25.6,0.2-38.5,0.2
			c-4.8,0-6.6,1.7-6.6,6.5C694.5,115.6,694.5,124.4,694.5,136.5z"/>
		<path class="st1" d="M174.8,2.9c54.8,0,109.7,0,164.5,0c0.2,0,0.3,0,0.5,0c9.4-2.5,13.6,3.1,17.4,10.5
			c9.4,18.7,18.7,37.4,28.8,55.6c17.1,31,32.8,62.7,49.8,93.8c7.1,13.1,13.8,26.4,20.7,39.6c10.8,20.7,22.3,41,32.7,61.9
			c5.4,10.9,10.2,22.1,17,32.3c2.8,4.2,1.6,6-3.4,6c-15.3,0.1-30.7,0-46,0.2c-3.3,0-5.4-1-6.7-3.9c-9.9-22.3-21.8-43.6-32.5-65.6
			c-12.8-26.4-26.4-52.5-39-79c-11.5-24.4-24.7-48.1-35.8-72.7c-5.6-12.4-12.5-24.2-17.9-36.7c-2-4.6-5.1-6.4-10.5-6.4
			c-77.8,0.2-155.6,0.2-233.5,0.2c-5.2,0-10.4,0.6-15.5,0c-5-0.6-5.3,2.2-4.2,5.2c3,8.4,5.3,17.5,12.8,23.3
			c7.4,5.9,14.9,11.8,23.5,16c2.9,1.4,5.6,1.5,8.5,1.6c56.3,0.1,112.6,0.2,169,0.3c7.7,0,15.3,0.1,23-0.2c3.7-0.1,5.9,1.4,7.5,4.6
			c5.8,11.9,11.6,23.8,18.2,35.4c2.2,3.8-1.1,3.7-3.4,3.7c-14.5,0-29-0.3-43.5-0.3c-46.5,0-93,0.1-139.5,0c-3.4,0-5.2,1-3.1,4.2
			c6.2,9.5,12,19.3,21.7,25.7c6.3,4.2,13,7.1,20.8,6c0.8-0.1,1.7-0.2,2.5-0.2c26.5,1.4,53-0.9,79.5-0.4c26.5,0.5,53,0.2,79.5,0
			c4.2,0,7.1,0.8,9.2,4.9c6.8,13.2,14.1,26.3,21,39.4c0.9,1.8,1.9,3.5,3.3,4.9c1.1,1,1.2,2.4,0.8,3.7c-0.5,1.7-2.1,1.3-3.4,1.3
			c-65.5,0-131,0.3-196.5-0.1c-22.8-0.2-42.2-9.9-58.7-25.6C98.6,178,87.9,161.1,82.2,141c-1.1-3.8-2.7-7.5-3.7-11.4
			c-0.6-2.5-2.3-4.1-5.1-4.8c-32.1-7.4-51.6-28.6-62.2-58.6C4.5,47.4,1.1,27.9,0,8c-0.2-4.3,1.2-5.5,5.3-5.5
			c56.5,0.1,113,0.1,169.5,0.1C174.8,2.7,174.8,2.8,174.8,2.9z"/>
		<path class="st0" d="M788.2,292.7c1.2,28.4-23.1,52.7-52.3,52.4c-29.3-0.3-51.9-25.2-51.5-52.8c0.4-27.5,22.4-52.2,52.9-51.6
			C765.2,241.2,789.4,264.4,788.2,292.7z M736.8,271.1c-12.9-1.2-22.8,10.4-23.3,21c-0.5,11,11.8,23.6,22.2,23.4
			c11.7-0.1,24.8-11.9,24-23.2C759,282.5,751.9,270.5,736.8,271.1z"/>
	</g>
</g>
<g>
	<path class="st0" d="M929.1,145.8h118v30.9h-79.5v25.9h72.6v29.9h-72.6v28.2h81.5v33.2H929.1V145.8z"/>
	<path class="st0" d="M1068.3,219.5c0.6-14.1,7.3-23.2,16.8-28.8c9.5-5.4,22-7.5,34.2-7.5c25.5,0,50.2,5.6,50.2,36.1v47.1
		c0,9.1,0,19.1,4.1,27.6h-35.5c-1.2-3.3-1.7-6.6-2.1-10.2c-9.1,9.5-22.6,13.3-35.5,13.3c-20.5,0-36.7-10.4-36.7-32.6
		c0-35.1,38.2-32.4,62.7-37.3c6-1.2,9.3-3.3,9.3-10c0-8.1-9.8-11.2-17-11.2c-9.8,0-16,4.4-17.6,13.5H1068.3z M1113.9,275.3
		c16.8,0,22.4-9.5,21.6-31.7c-5,3.1-14.1,3.7-21.8,5.8c-7.9,1.9-14.5,5.2-14.5,13.7C1099.2,271.7,1106,275.3,1113.9,275.3z"/>
	<path class="st0" d="M1220.1,258.5c0,5.4,2.3,9.3,5.8,12c3.3,2.5,8.1,3.7,13.1,3.7c6.8,0,16.6-2.9,16.6-11.4c0-8.3-11-10-17.2-11.4
		c-22.2-5.6-50-6.2-50-35.3c0-25.9,28-33,49.2-33c23.7,0,48.3,6.8,49.6,34.9h-32.6c0-4.6-1.7-7.5-4.6-9.3s-6.8-2.7-11.2-2.7
		c-5.8,0-15.1,0.6-15.1,8.1c0,10.2,23.7,12,39.8,15.6c21.8,4.4,27.4,20.1,27.4,29c0,28.8-27.4,38.4-51.7,38.4
		c-25.5,0-51.7-8.5-52.7-38.6H1220.1z"/>
	<path class="st0" d="M1366.8,303.5c-8.5,23.7-21.2,26.6-45,26.6h-16.6v-28.6h12.2c8.1,0,14.1-4.6,14.1-12c0-5.8-6.8-22.4-8.9-28.2
		l-27.8-74.9h37.3l20.3,70.1h0.4l20.3-70.1h36.1L1366.8,303.5z"/>
	<path class="st2" d="M1420.9,145.8h63.7c45.4,0,72.6,27.6,72.6,73.4c0,48.5-27.6,74.7-72.6,74.7h-63.7V145.8z M1459.5,260.8h18.3
		c29.3-0.6,40.9-12,40.9-41.7c0-27-14.5-40-40.9-40h-18.3V260.8z"/>
	<path class="st2" d="M1628.4,183.2c33.4,0,56.8,24.7,56.8,57.1c0,32.4-23.4,56.8-56.8,56.8c-33.4,0-56.6-24.5-56.6-56.8
		C1571.7,207.9,1595,183.2,1628.4,183.2z M1628.4,270.1c16.4,0,21.6-16.2,21.6-29.9s-5.2-30.1-21.6-30.1
		c-16.4,0-21.4,16.4-21.4,30.1S1612,270.1,1628.4,270.1z"/>
	<path class="st2" d="M1733.7,248.7c0.6,14.7,9.1,24.5,24.1,24.5c8.5,0,16.8-3.9,20.1-11.8h33c-6.4,24.9-29.5,35.7-53.5,35.7
		c-35.1,0-58.9-21.2-58.9-57.3c0-33,26.3-56.6,58.1-56.6c38.6,0,57.9,29,56.2,65.6H1733.7z M1777.5,229c-0.6-12-9.1-22-21-22
		c-12.4,0-20.7,8.9-22.8,22H1777.5z"/>
	<path class="st2" d="M1857.8,258.5c0,5.4,2.3,9.3,5.8,12c3.3,2.5,8.1,3.7,13.1,3.7c6.8,0,16.6-2.9,16.6-11.4c0-8.3-11-10-17.2-11.4
		c-22.2-5.6-50-6.2-50-35.3c0-25.9,28-33,49.2-33c23.7,0,48.3,6.8,49.6,34.9h-32.6c0-4.6-1.7-7.5-4.6-9.3s-6.8-2.7-11.2-2.7
		c-5.8,0-15.1,0.6-15.1,8.1c0,10.2,23.7,12,39.8,15.6c21.8,4.4,27.4,20.1,27.4,29c0,28.8-27.4,38.4-51.7,38.4
		c-25.5,0-51.7-8.5-52.7-38.6H1857.8z"/>
	<path class="st3" d="M1947.2,145.8h38.6v148.1h-38.6V145.8z"/>
	<path class="st3" d="M2076,209.1h-21.8v49c0,8.5,5,10.4,12.7,10.4c2.9,0,6-0.4,9.1-0.4v25.9c-6.4,0.2-12.9,1-19.3,1
		c-30.1,0-37.8-8.7-37.8-38v-47.9h-17.8v-22.8h17.8v-32.6h35.3v32.6h21.8V209.1z"/>
	<path class="st1" d="M2093.5,145.8h56.8l25.5,98.8h0.4l25.5-98.8h56.8v148.1h-36.3V181.5h-0.4l-31.1,112.4h-29.5l-31.1-112.4h-0.4
		v112.4h-36.3V145.8z"/>
	<path class="st1" d="M2335.4,183.2c33.4,0,56.8,24.7,56.8,57.1c0,32.4-23.4,56.8-56.8,56.8c-33.4,0-56.6-24.5-56.6-56.8
		C2278.7,207.9,2302,183.2,2335.4,183.2z M2335.4,270.1c16.4,0,21.6-16.2,21.6-29.9s-5.2-30.1-21.6-30.1
		c-16.4,0-21.4,16.4-21.4,30.1S2319,270.1,2335.4,270.1z"/>
	<path class="st1" d="M2474.8,293.9h-40.7l-35.9-107.7h36.7l19.7,71.2h0.4l19.9-71.2h35.9L2474.8,293.9z"/>
	<path class="st1" d="M2552.1,248.7c0.6,14.7,9.1,24.5,24.1,24.5c8.5,0,16.8-3.9,20.1-11.8h33c-6.4,24.9-29.5,35.7-53.5,35.7
		c-35.1,0-58.9-21.2-58.9-57.3c0-33,26.3-56.6,58.1-56.6c38.6,0,57.9,29,56.2,65.6H2552.1z M2595.9,229c-0.6-12-9.1-22-21-22
		c-12.4,0-20.7,8.9-22.8,22H2595.9z"/>
	<path class="st1" d="M2650.1,186.3h34.2v18.9h0.4c5.2-13.7,17.2-21,32.4-21c2.7,0,5.6,0.2,8.3,0.8v32.2c-4.6-1.2-8.7-2.1-13.5-2.1
		c-17.4,0-26.6,12-26.6,25.5v53.3h-35.3V186.3z"/>
	<path class="st1" d="M2764.6,258.5c0,5.4,2.3,9.3,5.8,12c3.3,2.5,8.1,3.7,13.1,3.7c6.8,0,16.6-2.9,16.6-11.4c0-8.3-11-10-17.2-11.4
		c-22.2-5.6-50-6.2-50-35.3c0-25.9,28-33,49.2-33c23.7,0,48.3,6.8,49.6,34.9H2799c0-4.6-1.7-7.5-4.6-9.3s-6.8-2.7-11.2-2.7
		c-5.8,0-15.1,0.6-15.1,8.1c0,10.2,23.7,12,39.8,15.6c21.8,4.4,27.4,20.1,27.4,29c0,28.8-27.4,38.4-51.7,38.4
		c-25.5,0-51.7-8.5-52.7-38.6H2764.6z"/>
</g>
</svg>
